# xmcd CD database file
#
# Track frame offsets:
#	150
#	18422
#	36102
#	51274
#	64231
#	76983
#	97460
#	112344
#	123414
#	139163
#	156118
#	169045
#	191297
#	213089
#	228298
#	247328
#	257230
#
# Disc length: 3677 seconds
#
# Revision: 3
# Processed by: cddbd v1.5.2PL0 Copyright (c) Steve Scherf et al.
# Submitted via: CDex 1.51
#
DISCID=f70e5b11
DTITLE=Various Artist - Blues With A Feeling CD2
DYEAR=1968
DGENRE=Blues
TTITLE0=Elizabeth Cotten - Freight Train
TTITLE1=Mississippi John Hurt - Here I Am Lord Send Me
TTITLE2=Mississippi John Hurt - Pallet On Your Floor
TTITLE3=Jesse "Lone Cat" Fuller - San Francisco Bay Blues
TTITLE4=John Lee Hooker - I Can't Quit You Baby - Stop Now Baby
TTITLE5=Muddy Waters - Walkin' Blues
TTITLE6=Muddy Waters - I Can't Be Satisfied
TTITLE7=Eddie Boyd and Willie Dixon - Five Long Years
TTITLE8=Lafayette Leake and Willie Dixon - Wrinkles
TTITLE9=Dave Van Ronk - Cocaine
TTITLE10=John Hammond - Drop Down Mama
TTITLE11=Eric Von Schmidt - Grizzly Bear
TTITLE12="spider" John Koerner - Traveling Blues
TTITLE13=The Chambers Brothers - See See Rider
TTITLE14=Paul Butterfield Blues - Blues With A Feeling
TTITLE15=Paul Butterfield Blues - Look Over Yonders Wall
TTITLE16=Paul Butterfield Blues - Born In Chicago
EXTD=YEAR: 1968
EXTT0=
EXTT1=
EXTT2=
EXTT3=
EXTT4=
EXTT5=
EXTT6=
EXTT7=
EXTT8=
EXTT9=
EXTT10=
EXTT11=
EXTT12=
EXTT13=
EXTT14=
EXTT15=
EXTT16=
PLAYORDER=
